HIERARCHY
ROOT Hips
{
 OFFSET 0.000000 0.000000 0.000000
 CHANNELS 6 Xposition Yposition Zposition Yrotation Xrotation Zrotation
 JOINT Chest
 {
  OFFSET 0.000000 9.585900 0.002600
  CHANNELS 3 Yrotation Xrotation Zrotation
  JOINT Chest2
  {
   OFFSET 0.000000 9.601200 -0.005300
   CHANNELS 3 Yrotation Xrotation Zrotation
   JOINT Chest3
   {
    OFFSET 0.000000 9.561800 0.000000
    CHANNELS 3 Yrotation Xrotation Zrotation
    JOINT Chest4
    {
     OFFSET 0.000000 9.552100 0.000000
     CHANNELS 3 Yrotation Xrotation Zrotation
     JOINT Neck
     {
      OFFSET 0.000000 14.453000 0.000000
      CHANNELS 3 Yrotation Xrotation Zrotation
      JOINT Head
      {
       OFFSET 0.000000 8.936500 -0.011300
       CHANNELS 3 Yrotation Xrotation Zrotation
       End Site
       {
        OFFSET 0.000000 17.073600 -0.006000
       }
      }
     }
     JOINT RightCollar
     {
      OFFSET -2.921100 9.558500 0.000000
      CHANNELS 3 Yrotation Xrotation Zrotation
      JOINT RightShoulder
      {
       OFFSET -13.519700 0.000000 0.000000
       CHANNELS 3 Yrotation Xrotation Zrotation
       JOINT RightElbow
       {
        OFFSET 0.000000 -29.696600 0.000000
        CHANNELS 3 Yrotation Xrotation Zrotation
        JOINT RightWrist
        {
         OFFSET 0.000000 -24.004700 0.000000
         CHANNELS 3 Yrotation Xrotation Zrotation
         End Site
         {
          OFFSET 0.000000 -17.728500 0.000000
         }
        }
       }
      }
     }
     JOINT LeftCollar
     {
      OFFSET 2.921100 9.558500 0.000000
      CHANNELS 3 Yrotation Xrotation Zrotation
      JOINT LeftShoulder
      {
       OFFSET 13.519700 0.000000 0.000000
       CHANNELS 3 Yrotation Xrotation Zrotation
       JOINT LeftElbow
       {
        OFFSET 0.000000 -29.696600 0.000000
        CHANNELS 3 Yrotation Xrotation Zrotation
        JOINT LeftWrist
        {
         OFFSET 0.000000 -24.004700 0.000000
         CHANNELS 3 Yrotation Xrotation Zrotation
         End Site
         {
          OFFSET 0.000000 -17.728500 0.000000
         }
        }
       }
      }
     }
    }
   }
  }
 }
 JOINT RightHip
 {
  OFFSET -7.771700 -0.012900 -0.001300
  CHANNELS 3 Yrotation Xrotation Zrotation
  JOINT RightKnee
  {
   OFFSET 0.000000 -40.869800 0.001200
   CHANNELS 3 Yrotation Xrotation Zrotation
   JOINT RightAnkle
   {
    OFFSET 0.000000 -39.717900 0.002100
    CHANNELS 3 Yrotation Xrotation Zrotation
    JOINT RightToe
    {
     OFFSET 0.000000 -4.965400 11.033500
     CHANNELS 3 Yrotation Xrotation Zrotation
     End Site
     {
      OFFSET 0.000000 -1.423100 5.872300
     }
    }
   }
  }
 }
 JOINT LeftHip
 {
  OFFSET 7.771700 -0.012900 -0.001300
  CHANNELS 3 Yrotation Xrotation Zrotation
  JOINT LeftKnee
  {
   OFFSET 0.000000 -40.869800 0.001200
   CHANNELS 3 Yrotation Xrotation Zrotation
   JOINT LeftAnkle
   {
    OFFSET 0.000000 -39.717900 0.002100
    CHANNELS 3 Yrotation Xrotation Zrotation
    JOINT LeftToe
    {
     OFFSET 0.000000 -4.965400 11.033500
     CHANNELS 3 Yrotation Xrotation Zrotation
     End Site
     {
      OFFSET 0.000000 -1.423100 5.872300
     }
    }
   }
  }
 }
}
MOTION
Frames: 8
Frame Time: 0.008333
-73.852300 50.447233 -5.364216 163.710891 -10.302153 -0.538061 2.458471 8.929172 0.675263 0.134094 0.506478 -0.014573 0.214937 0.856177 -0.011510 2.149473 8.379934 -0.016711 3.037959 18.766625 0.194100 5.480240 -0.922826 -0.589189 3.019787 6.088751 0.399601 -6.142749 -11.324911 -5.155370 -18.533242 -75.137310 36.438162 -2.442013 0.854491 -34.670843 -4.600979 2.988336 -0.417065 19.244343 -7.056396 4.067465 59.390616 -75.335944 -82.836344 4.877587 -0.333900 22.850912 -2.652937 -70.301144 -1.605370 -123.128468 81.030455 -122.452938 -2.912506 -15.608768 1.312640 -0.248747 0.715596 -0.119284 -5.392704 -73.914036 24.252801 117.871458 79.587966 114.086967 -15.999679 -21.712214 1.910295 -0.286915 -0.871005 -0.106792
-73.856440 50.448056 -5.367612 163.716519 -10.301424 -0.517007 2.457963 8.939438 0.648254 0.136124 0.510806 -0.016571 0.223340 0.867022 -0.017107 2.147084 8.368993 -0.014043 3.037127 18.760580 0.201567 5.472613 -0.942117 -0.575051 3.005883 6.064360 0.405119 -6.104858 -11.301278 -5.173368 -18.333350 -75.080527 36.259345 -2.438110 0.836572 -34.678194 -4.616450 2.982253 -0.404654 19.229129 -7.056350 4.060886 59.189695 -75.299394 -82.627438 4.905907 -0.403687 22.871823 -2.616878 -70.302879 -1.665679 -123.201429 81.037938 -122.527397 -2.905865 -15.620630 1.312138 -0.253023 0.721367 -0.121894 -5.290692 -73.918030 24.142407 117.927421 79.605605 114.156247 -16.018678 -21.734471 1.923427 -0.231511 -0.863126 -0.108538
-73.855468 50.449007 -5.370542 163.718104 -10.304397 -0.527898 2.472540 8.964569 0.649005 0.129305 0.500714 -0.010402 0.222360 0.864834 -0.015767 2.172694 8.401563 -0.027362 3.017874 18.721391 0.220239 5.469740 -0.956293 -0.565137 2.976887 6.017425 0.423338 -6.062433 -11.284371 -5.190842 -18.086830 -75.020492 36.036746 -2.441560 0.802375 -34.693541 -4.652603 2.947845 -0.380872 19.210100 -7.055537 4.052232 58.964955 -75.270898 -82.380234 4.974502 -0.460826 22.925280 -2.658258 -70.297470 -1.632113 -123.242755 81.039953 -122.565342 -2.899827 -15.623537 1.309989 -0.255399 0.717556 -0.125976 -5.305236 -73.914179 24.150189 117.972365 79.610275 114.204629 -15.948443 -21.771288 1.918243 -0.257495 -0.847781 -0.117425
-73.856278 50.449601 -5.372832 163.721655 -10.298508 -0.531607 2.474312 8.967750 0.648139 0.130937 0.505011 -0.012706 0.223237 0.866939 -0.016101 2.177970 8.410739 -0.029903 3.013322 18.701091 0.227591 5.468460 -0.973303 -0.560840 2.964130 5.978275 0.420687 -6.019531 -11.257227 -5.197389 -18.033034 -74.997529 35.969415 -2.425804 0.841537 -34.673563 -4.669885 2.935900 -0.369019 19.185764 -7.056302 4.037101 58.715728 -75.251242 -82.095656 5.003646 -0.501692 22.972682 -2.682397 -70.301039 -1.619458 -123.273794 81.044221 -122.595739 -2.893371 -15.628963 1.311012 -0.259419 0.718585 -0.131177 -5.312347 -73.918179 24.143954 117.985776 79.606114 114.220070 -15.906673 -21.808168 1.923990 -0.277555 -0.832978 -0.132500
-73.857221 50.450035 -5.375165 163.728660 -10.291076 -0.535446 2.469386 8.963465 0.649138 0.133537 0.512113 -0.017099 0.226862 0.875095 -0.020299 2.182078 8.414707 -0.031650 3.014045 18.691097 0.234421 5.467696 -1.012856 -0.554295 2.948467 5.942993 0.412073 -5.928398 -11.216860 -5.225003 -17.882525 -74.927110 35.813534 -2.430611 0.817337 -34.690030 -4.686948 2.924527 -0.356047 19.156697 -7.052254 4.020447 58.447864 -75.238215 -81.783217 5.014725 -0.533012 23.010677 -2.713898 -70.305281 -1.603435 -123.298217 81.048415 -122.621066 -2.885915 -15.637958 1.309914 -0.260232 0.722553 -0.132449 -5.331257 -73.924997 24.154059 117.997898 79.604680 114.232128 -15.900097 -21.825119 1.929294 -0.270080 -0.834467 -0.134850
-73.856576 50.450951 -5.380437 163.721465 -10.302812 -0.539977 2.482331 8.987165 0.647776 0.130315 0.503153 -0.010810 0.230090 0.883367 -0.027236 2.187060 8.420492 -0.036889 3.018579 18.688080 0.234044 5.460703 -1.042157 -0.537573 2.928455 5.900466 0.376367 -5.855740 -11.167173 -5.210438 -17.665983 -74.847348 35.618918 -2.436787 0.797857 -34.711862 -4.719706 2.920367 -0.342667 19.141283 -7.047570 4.001619 58.155059 -75.231781 -81.440584 5.021130 -0.556022 23.052281 -2.739733 -70.289362 -1.578542 -123.306099 81.044715 -122.626623 -2.878049 -15.648839 1.303748 -0.260141 0.724847 -0.126943 -5.341347 -73.911901 24.169878 118.041486 79.598812 114.278293 -15.895441 -21.842061 1.930551 -0.269669 -0.844295 -0.134271
-73.855121 50.451331 -5.383249 163.711568 -10.301658 -0.550862 2.496810 8.993237 0.652975 0.130823 0.504012 -0.011251 0.231555 0.885019 -0.027466 2.190898 8.425646 -0.042499 3.017012 18.672850 0.246368 5.459730 -1.051162 -0.533681 2.926221 5.871846 0.361023 -5.836964 -11.144547 -5.194100 -17.430376 -74.771120 35.431360 -2.438521 0.803196 -34.718382 -4.741834 2.902423 -0.329316 19.111555 -7.027133 3.987079 57.841178 -75.229138 -81.072704 5.023139 -0.572132 23.091919 -2.781191 -70.287384 -1.530389 -123.310898 81.047984 -122.634881 -2.869287 -15.652744 1.307441 -0.268709 0.725687 -0.132691 -5.378476 -73.911216 24.214899 118.045256 79.587936 114.285577 -15.889840 -21.857842 1.928548 -0.294214 -0.849246 -0.137235
-73.856892 50.451067 -5.384089 163.717417 -10.284219 -0.546939 2.493981 8.985532 0.639535 0.137612 0.512551 -0.018322 0.228211 0.877047 -0.019862 2.196021 8.432106 -0.046707 3.010798 18.662900 0.250252 5.458873 -1.061593 -0.524381 2.919407 5.848536 0.358172 -5.765830 -11.114031 -5.213549 -17.294696 -74.695235 35.301191 -2.443449 0.802084 -34.719618 -4.768802 2.877294 -0.317492 19.077908 -7.003086 3.975632 57.519326 -75.221903 -80.692934 5.013131 -0.625472 23.097233 -2.785848 -70.303928 -1.535852 -123.322723 81.050594 -122.649821 -2.869035 -15.657631 1.310746 -0.270073 0.728784 -0.134874 -5.372070 -73.929966 24.205300 118.004175 79.576747 114.248163 -15.949703 -21.849462 1.942158 -0.279762 -0.864011 -0.137096
